<?xml version="1.0" standalone="no"?>
<!DOCTYPE svg PUBLIC "-//W3C//DTD SVG 20010904//EN"
 "http://www.w3.org/TR/2001/REC-SVG-20010904/DTD/svg10.dtd">
<svg version="1.0" xmlns="http://www.w3.org/2000/svg"
 width="1923.000000pt" height="1081.000000pt" viewBox="0 0 1923.000000 1081.000000"
 preserveAspectRatio="xMidYMid meet">

<g transform="translate(0.000000,1081.000000) scale(0.100000,-0.100000)"
fill="#000000" stroke="none">
<path d="M5060 6094 c-162 -35 -304 -142 -373 -284 -47 -94 -67 -188 -67 -313
0 -312 151 -521 430 -594 117 -30 324 -21 511 23 l66 15 22 162 c13 89 25 172
28 185 13 55 -35 11 -171 -157 -157 -193 -167 -201 -261 -201 -132 0 -234 109
-286 308 -29 111 -37 337 -15 461 45 258 188 399 369 361 l54 -11 119 -169
c65 -93 125 -169 132 -170 9 0 12 41 12 175 l0 174 -39 11 c-144 39 -408 51
-531 24z"/>
<path d="M9563 6091 c-208 -53 -341 -178 -405 -381 -19 -63 -23 -96 -23 -210
0 -207 40 -321 152 -440 131 -139 316 -195 565 -170 99 9 288 46 288 55 0 2
11 80 25 175 14 95 25 176 25 181 0 32 -46 -13 -172 -170 -118 -147 -149 -180
-179 -190 -53 -16 -128 -13 -174 8 -46 21 -115 92 -143 148 -104 204 -107 606
-5 796 34 64 95 126 148 152 44 22 166 26 200 7 11 -5 71 -83 135 -173 63 -89
121 -164 128 -167 10 -3 12 34 10 174 l-3 179 -90 18 c-54 10 -155 20 -250 22
-133 4 -172 2 -232 -14z"/>
<path d="M12248 6065 l-38 -43 63 -54 c34 -30 69 -59 78 -66 14 -11 28 -3 90
49 41 34 76 63 78 65 2 1 -14 23 -34 48 l-37 46 -82 0 -81 -1 -37 -44z"/>
<path d="M14150 6103 c1 -5 24 -24 53 -43 l52 -35 3 -517 2 -516 -50 -32 c-27
-18 -50 -36 -50 -41 0 -5 101 -9 230 -9 127 0 230 4 230 8 0 5 -20 23 -45 41
l-45 32 0 560 0 559 -190 0 c-104 0 -190 -3 -190 -7z"/>
<path d="M12843 5885 c-105 -90 -131 -107 -183 -122 -45 -12 -60 -21 -60 -35
0 -15 8 -18 60 -18 l60 0 0 -332 c0 -370 3 -385 69 -441 63 -53 198 -64 286
-23 77 35 157 136 125 156 -10 6 -23 -1 -46 -25 -52 -57 -121 -59 -149 -5 -12
24 -15 82 -15 350 l0 320 110 0 c103 0 110 1 110 20 0 19 -7 20 -110 20 l-110
0 0 120 c0 90 -3 120 -12 120 -7 -1 -68 -48 -135 -105z"/>
<path d="M6271 5757 c-42 -16 -105 -69 -128 -107 -17 -30 -33 -39 -33 -20 0 5
-9 34 -21 65 l-20 55 -160 0 c-87 0 -159 -4 -159 -9 0 -5 23 -23 50 -41 l50
-32 0 -338 0 -339 -45 -32 c-25 -18 -45 -36 -45 -41 0 -4 113 -8 250 -8 138 0
250 4 250 8 0 5 -31 23 -70 42 l-70 34 0 276 0 276 30 41 c26 35 69 73 84 73
2 0 44 -44 92 -97 49 -54 94 -99 101 -101 17 -5 24 286 6 292 -33 13 -131 14
-162 3z"/>
<path d="M6818 5754 c-78 -19 -132 -47 -190 -102 -167 -156 -171 -474 -9 -638
80 -81 195 -124 336 -124 237 0 405 128 445 340 48 253 -81 470 -311 525 -78
18 -195 18 -271 -1z m200 -44 c71 -44 96 -161 89 -423 -5 -210 -19 -271 -73
-325 -32 -32 -38 -34 -86 -30 -63 7 -98 40 -124 120 -22 69 -32 386 -14 485
22 129 70 193 145 193 17 0 45 -9 63 -20z"/>
<path d="M7680 5748 c-106 -37 -161 -92 -179 -179 -19 -87 9 -170 78 -232 51
-46 69 -55 219 -107 138 -48 177 -76 188 -134 16 -90 -36 -156 -132 -164 -90
-7 -93 -5 -216 163 -62 85 -116 155 -120 155 -4 0 -8 -71 -8 -158 l0 -159 53
-11 c182 -40 351 -41 448 -3 69 26 142 89 171 144 26 51 34 142 18 193 -31 96
-93 139 -303 210 -166 57 -197 80 -197 146 0 50 18 82 60 103 29 15 98 20 135
9 11 -3 69 -66 130 -140 60 -74 113 -130 117 -126 5 5 7 69 6 143 l-3 134 -65
12 c-36 7 -126 16 -200 19 -123 4 -141 3 -200 -18z"/>
<path d="M8517 5760 c-146 -37 -229 -142 -214 -270 16 -133 76 -181 342 -275
51 -18 92 -40 113 -61 28 -28 32 -38 32 -87 0 -96 -60 -143 -170 -135 -45 3
-64 9 -74 24 -128 177 -214 289 -221 287 -6 -2 -11 -68 -13 -153 -3 -175 -16
-157 137 -184 135 -23 265 -21 344 5 161 53 247 184 216 328 -22 103 -95 158
-302 227 -169 56 -200 79 -201 147 -1 40 4 51 31 78 24 25 42 33 82 37 27 2
61 2 74 -2 15 -3 65 -55 131 -135 58 -72 111 -133 116 -136 6 -4 10 45 10 138
l0 144 -72 13 c-94 16 -312 22 -361 10z"/>
<path d="M10490 5755 c-52 -8 -103 -14 -112 -14 -16 -1 -18 -15 -18 -151 0
-123 3 -150 14 -150 8 0 66 63 130 139 64 76 123 142 132 145 25 10 71 7 99
-6 42 -19 58 -62 63 -174 4 -100 4 -101 -19 -108 -13 -3 -87 -22 -164 -42
-171 -44 -231 -71 -283 -128 -63 -68 -74 -175 -27 -266 37 -72 145 -116 264
-108 81 6 121 25 187 90 l52 50 19 -58 20 -59 156 -3 c86 -1 157 1 157 6 0 5
-20 23 -45 41 l-45 32 0 269 c0 160 -5 290 -11 321 -15 70 -71 131 -147 160
-72 28 -279 35 -422 14z m310 -514 l0 -159 -39 -35 c-46 -42 -71 -51 -116 -43
-62 12 -105 79 -105 166 0 50 42 133 80 160 32 23 142 68 168 69 9 1 12 -37
12 -158z"/>
<path d="M11647 5754 c-31 -9 -66 -33 -99 -64 -29 -28 -53 -50 -54 -50 -2 0
-11 25 -20 55 l-18 55 -164 0 c-182 0 -184 -1 -96 -57 l44 -28 0 -537 0 -537
-44 -31 c-25 -16 -48 -35 -51 -40 -4 -7 84 -10 249 -10 141 0 256 4 256 9 0 4
-31 23 -70 40 l-70 33 0 178 0 179 52 -27 c46 -24 64 -27 148 -27 82 0 103 4
152 27 108 50 182 149 214 285 22 93 14 255 -16 340 -27 77 -93 154 -164 190
-64 33 -176 41 -249 17z m63 -123 c69 -49 94 -135 94 -321 0 -192 -41 -301
-125 -334 -51 -21 -75 -20 -126 4 l-43 19 0 296 0 296 27 25 c49 45 121 52
173 15z"/>
<path d="M13470 5755 c-52 -8 -103 -14 -112 -14 -16 -1 -18 -15 -18 -151 0
-123 3 -150 14 -150 8 0 66 63 130 139 64 76 123 142 132 145 25 10 71 7 99
-6 42 -19 58 -62 63 -174 4 -100 4 -101 -19 -108 -13 -3 -87 -22 -164 -42
-171 -44 -231 -71 -283 -128 -63 -68 -74 -175 -27 -266 37 -72 145 -116 264
-108 81 6 121 25 187 90 l52 50 19 -58 20 -59 156 -3 c86 -1 157 1 157 6 0 5
-20 23 -45 41 l-45 32 0 269 c0 160 -5 290 -11 321 -15 70 -71 131 -147 160
-72 28 -279 35 -422 14z m310 -514 l0 -159 -39 -35 c-46 -42 -71 -51 -116 -43
-62 12 -105 79 -105 166 0 50 42 133 80 160 32 23 142 68 168 69 9 1 12 -37
12 -158z"/>
<path d="M12130 5741 c0 -5 23 -23 50 -41 l50 -32 0 -339 0 -339 -45 -32 c-25
-18 -45 -35 -45 -40 0 -4 104 -8 230 -8 127 0 230 4 230 8 0 5 -22 24 -50 43
l-50 34 0 378 0 377 -185 0 c-102 0 -185 -4 -185 -9z"/>
</g>
</svg>
